<?xml version="1.0" encoding="UTF-8"?>
<svg width="60px" height="30px" viewBox="0 0 60 30" version="1.1" xmlns="http://www.w3.org/2000/svg" xmlns:xlink="http://www.w3.org/1999/xlink">
    <!-- Generator: Sketch 47.1 (45422) - http://www.bohemiancoding.com/sketch -->
    <title>Лого NEW (в кривых) Copy</title>
    <desc>Created with Sketch.</desc>
    <defs>
        <polygon id="path-1" points="0.0220320856 29.6655659 60.410877 29.6655659 60.410877 0.333709431 0.0220320856 0.333709431"></polygon>
    </defs>
    <g id="Торты" stroke="none" stroke-width="1" fill="none" fill-rule="evenodd">
        <g id="Group-2-Copy">
            <g id="Лого-NEW-(в-кривых)-Copy">
                <g id="Group-3">
                    <mask id="mask-2" fill="white">
                        <use xlink:href="#path-1"></use>
                    </mask>
                    <g id="Clip-2"></g>
                    <path d="M56.95441,29.20183 L34.7835223,29.216862 L0.45826738,29.2191168 L0.45826738,23.3220803 L1.18202139,23.3220803 L1.18202139,17.9195952 L0.45826738,17.9195952 L0.45826738,11.3096682 L12.5436007,11.3160567 L12.779344,10.5967776 C13.439205,8.58324708 15.9508627,6.69899135 19.5916649,6.09057292 L20.4538538,5.94626614 L20.4567914,5.05374373 C20.4615651,3.73017997 21.2741818,2.68921699 22.9074938,1.92484201 C24.5154688,1.1721168 26.7091301,0.811349844 28.9112371,0.802706469 L29.3169947,0.802706469 C31.5191016,0.811349844 33.7127629,1.1721168 35.320738,1.92484201 C36.9544171,2.68921699 37.7670339,3.73017997 37.7714403,5.05374373 L37.7743779,5.94626614 L38.636934,6.09057292 C42.277369,6.69899135 44.7893939,8.58324708 45.4488877,10.5967776 L45.684631,11.3160567 L57.7699643,11.3096682 L57.7699643,17.9282385 C59.2663102,18.7580025 59.9526096,21.2529315 59.9526096,23.432941 C59.9526096,25.9218571 59.0338717,28.9665799 56.95441,29.20183 Z M58.2282317,17.6648035 L58.2282317,10.8402953 L46.0143779,10.8470597 L45.883287,10.4479613 C45.1459465,8.1973016 42.4308592,6.24953585 38.7107415,5.62796446 L38.2311765,5.54791929 L38.2293405,5.05186473 C38.2241996,3.47576411 37.2342246,2.30477471 35.5113155,1.49831025 C33.8225561,0.708005144 31.5565561,0.343104404 29.3180963,0.333709431 L28.9101355,0.333709431 C26.6716756,0.343104404 24.4056756,0.708005144 22.7169162,1.49831025 C20.9940071,2.30477471 20.0040321,3.47576411 19.9985241,5.05186473 L19.9970553,5.54791929 L19.5178574,5.62796446 C15.7977398,6.24953585 13.0822852,8.1973016 12.3449447,10.4479613 L12.2138538,10.8470597 L0,10.8402953 L0,18.3885922 L0.723754011,18.3885922 L0.723754011,22.8530832 L0,22.8530832 L0,29.6881138 L23.0650232,29.6881138 L57.0050838,29.6681965 C59.5182103,29.3837167 60.410877,25.8669905 60.410877,23.432941 C60.410877,21.339741 59.7925098,18.7407158 58.2282317,17.6648035 L58.2282317,17.6648035 Z" id="Fill-1" mask="url(#mask-2)"></path>
                </g>
                <path d="M56.8537968,28.2702245 L33.8831444,28.2796195 L1.37443494,28.2814985 L1.37443494,24.2596986 L2.09818895,24.2596986 L2.09818895,16.9816011 L1.37443494,16.9816011 L1.37443494,12.2476622 L13.2027273,12.2544266 L13.6481426,10.895162 C14.1530446,9.35325904 16.2596791,7.59790234 19.7392799,7.01616563 L21.367451,6.74333562 L21.3733262,5.05675012 C21.3758966,4.2356295 21.837836,3.45659836 23.2886488,2.77790553 C24.7354225,2.1003401 26.7840392,1.74896812 28.9127059,1.73994895 L28.9942246,1.74032475 L29.0728057,1.73994895 L29.2336399,1.74032475 L29.3155258,1.73994895 C31.4438253,1.74896812 33.4928093,2.1003401 34.9395829,2.77790553 C36.3903957,3.45659836 36.8519679,4.2356295 36.8549055,5.05675012 L36.8607807,6.74333562 L38.4889519,7.01616563 C41.9685526,7.59790234 44.07482,9.35325904 44.5800891,10.895162 L45.0255045,12.2544266 L56.8537968,12.2476622 L56.8537968,18.5956574 C58.0703351,18.7339514 59.0360749,20.8466929 59.0360749,23.432941 C59.0360749,26.0191891 58.0703351,28.1319305 56.8537968,28.2702245 Z M57.3120642,18.2288777 L57.3120642,11.7786652 L45.3552513,11.7854296 L45.0144884,10.7459698 C44.432107,8.96844096 42.1231444,7.14844684 38.5631266,6.55318137 L37.3175793,6.34498878 L37.3131729,5.05524692 C37.3095009,3.98384423 36.6727736,3.07328348 35.1301604,2.35137377 C33.6026025,1.63660425 31.4816471,1.28034688 29.3162602,1.27132771 L28.9119715,1.27132771 C26.7465847,1.28034688 24.6256292,1.63660425 23.0980713,2.35137377 C21.5554581,3.07328348 20.9187308,3.98384423 20.9150588,5.05524692 L20.9106524,6.34498878 L19.6654724,6.55318137 C16.1050873,7.14844684 13.7961248,8.96844096 13.2137433,10.7459698 L12.8729804,11.7854296 L0.916167558,11.7786652 L0.916167558,17.4505981 L1.64028877,17.4505981 L1.64028877,23.7910773 L0.916167558,23.7910773 L0.916167558,28.7501197 L23.8974688,28.7501197 L56.9044706,28.7362152 C58.5510018,28.5494431 59.4943422,25.9722142 59.4943422,23.432941 C59.4943422,21.1108795 58.7055936,18.7580025 57.3120642,18.2288777 L57.3120642,18.2288777 Z" id="Fill-17"></path>
                <path d="M20.9616934,11.7125246 C21.0821355,10.949277 21.5576613,10.5159809 22.3886381,10.413012 C21.8591337,10.6636698 21.3832406,11.096966 20.9616934,11.7125246 Z M20.5577718,11.5035804 C20.2999964,10.6884726 19.3162638,10.4250375 18.5612977,10.9184615 C17.6844207,11.5268799 17.9891979,12.8147428 19.0885989,12.963935 C18.8411052,12.5644607 18.8447772,12.2469106 19.0999822,12.0109089 C19.5597184,11.6877219 20.0642531,12.2750956 19.7950945,12.6884744 C19.5057398,13.1082417 19.2567772,13.3194407 18.5726809,13.4115115 C16.7197825,13.5952771 16.6188021,11.5381539 18.4155187,10.5625799 C15.4635865,9.82751727 14.5551301,13.7328195 17.3590802,14.3066645 C18.426902,14.4787804 19.4778324,13.9699486 20.490574,13.0097824 C20.8159144,12.7230479 21.3744278,12.8158702 21.5583957,13.0672797 C21.9171515,13.5607036 21.221672,14.1003509 20.7597326,13.2243636 C20.556303,14.182275 21.4463993,14.5366534 22.0743137,14.1461983 C22.9041889,13.5032064 22.6394367,12.5550657 21.6927914,12.3442426 C22.8314831,12.2525476 23.2948913,11.4438284 23.0837504,9.9199638 C21.7243708,10.0368373 20.8823779,10.5644589 20.5577718,11.5035804 L20.5577718,11.5035804 Z" id="Fill-18" fill="#FFFFFF"></path>
                <path d="M34.7240357,10.413012 C35.5546453,10.5159809 36.0305383,10.949277 36.1506132,11.7125246 C35.729066,11.096966 35.2535401,10.6636698 34.7240357,10.413012 Z M36.6217326,13.0097824 C37.6348414,13.9699486 38.6857718,14.4787804 39.7535936,14.3066645 C42.5571765,13.7328195 41.6490873,9.82751727 38.6971551,10.5625799 C40.4935045,11.5381539 40.3928913,13.5952771 38.5396257,13.4115115 C37.8558966,13.3194407 37.606934,13.1082417 37.3172121,12.6884744 C37.0484207,12.2750956 37.5529554,11.6877219 38.0126916,12.0109089 C38.2675294,12.2469106 38.2715686,12.5644607 38.0240749,12.963935 C39.1231087,12.8147428 39.4282531,11.5268799 38.5510089,10.9184615 C37.79641,10.4250375 36.8126774,10.6884726 36.5545348,11.5035804 C36.2302959,10.5644589 35.388303,10.0368373 34.0285561,9.9199638 C33.8177825,11.4438284 34.2811907,12.2525476 35.4195152,12.3442426 C34.4728699,12.5550657 34.2081176,13.5032064 35.0383601,14.1461983 C35.6662745,14.5366534 36.5563708,14.182275 36.352574,13.2243636 C35.8906346,14.1003509 35.1955223,13.5607036 35.5542781,13.0672797 C35.7378788,12.8158702 36.2967594,12.7230479 36.6217326,13.0097824 L36.6217326,13.0097824 Z" id="Fill-19" fill="#FFFFFF"></path>
                <path d="M28.1893191,8.04059345 L28.2021711,7.39948052 C28.1918895,7.31680476 28.0938467,7.27772167 27.9726702,7.26231391 L27.4479394,7.26532031 L27.4479394,8.20218699 L27.9040036,8.20218699 C28.0637362,8.1980532 28.1823422,8.13078519 28.1893191,8.04059345" id="Fill-20" fill="#FFFFFF"></path>
                <path d="M26.6804884,9.6080507 L26.99518,9.6080507 L26.99518,7.26532031 L26.6804884,7.26532031 L26.6804884,6.90455335 L27.9528414,6.90455335 C28.4059679,6.91019034 28.6299608,7.07817245 28.6351016,7.38369696 L28.6351016,8.01391173 C28.6409768,8.18039065 28.5892014,8.31004127 28.365943,8.36415631 C28.5892014,8.36415631 28.7661925,8.51447588 28.792631,8.68208219 L28.792631,9.44645717 C28.7669269,9.72642736 28.3949519,9.94739712 27.9726702,9.95791949 L26.6804884,9.95791949 L26.6804884,9.6080507 Z M30.0917897,8.10485507 L30.0917897,8.41639236 L29.8362175,8.41639236 L29.8362175,9.12026372 C29.8362175,9.12026372 30.4611943,9.11876052 30.4340214,9.12477331 C30.59559,9.12477331 30.7237433,9.23262759 30.7428378,9.35250745 L30.7428378,9.97783683 C30.7244777,10.1781376 30.5159073,10.336349 30.2100285,10.343865 L29.2740321,10.343865 L29.2740321,10.0932071 L29.5020642,10.0932071 L29.5020642,8.41601656 L29.4289911,8.41601656 C29.3346203,8.42202935 29.2413512,8.40850059 29.2413512,8.50883889 L29.2413512,8.9541606 L28.9295971,8.9541606 L28.9295971,8.41639236 L28.9255579,8.10485507 L30.0917897,8.10485507 Z M28.5308164,12.0176733 C30.2731872,12.0176733 31.6854439,10.5719749 31.6854439,8.78918488 C31.6854439,7.00601906 30.2731872,5.56069645 28.5308164,5.56069645 C26.7888128,5.56069645 25.3765561,7.00601906 25.3765561,8.78918488 C25.3765561,10.5719749 26.7888128,12.0176733 28.5308164,12.0176733 L28.5308164,12.0176733 Z" id="Fill-21" fill="#FFFFFF"></path>
                <path d="M28.3729198,9.38745674 L28.3729198,8.77340133 C28.3604349,8.65502467 28.1625134,8.59978223 27.9726702,8.59113886 L27.4479394,8.59527264 L27.4479394,9.6080507 L27.9333797,9.6080507 C28.1823422,9.60278952 28.3729198,9.53251512 28.3729198,9.38745674" id="Fill-22" fill="#FFFFFF"></path>
                <path d="M25.0328556,8.78918488 C25.0328556,6.81173102 26.5989697,5.20857288 28.5308164,5.20857288 C30.4630303,5.20857288 32.0291444,6.81173102 32.0291444,8.78918488 C32.0291444,10.7662629 30.4630303,12.3690453 28.5308164,12.3690453 C26.5989697,12.3690453 25.0328556,10.7662629 25.0328556,8.78918488 Z M25.1121711,12.7929465 C24.9741034,12.8350359 24.9406881,13.006776 25.0115579,13.3081668 C25.2744742,13.4156452 25.6662781,13.4502187 26.1866025,13.4115115 C26.4542923,13.8312788 27.2856364,14.0203057 28.6802674,13.9778404 C29.2016934,13.9353751 29.7502923,13.6204557 30.3253298,13.0334578 C30.8959608,12.9008007 31.4419893,12.6772004 31.9630481,12.3634083 C32.8358859,11.7797926 32.8865597,11.42579 33.2387059,10.6873452 C33.6760428,9.66705113 33.6705348,8.86772685 33.2221818,8.28937233 C32.7488592,7.83202506 32.5700321,7.41376087 32.6849661,7.03570717 C32.9045526,6.53476723 32.9493512,6.17963726 32.8189947,5.97069306 C32.3989162,5.03194739 31.9009911,4.42691115 31.3252193,4.15671173 L31.5268128,4.82638539 C31.060467,4.89891458 30.6881248,4.80721964 30.4090517,4.55167638 C29.6900713,3.82901508 28.9453868,3.50282163 28.1742638,3.57272023 C27.0928556,3.65840238 26.5053333,4.43142073 25.6662781,5.09433001 C24.9274688,5.62683706 24.4247701,5.62683706 24.1317433,6.00413917 C23.7175401,6.53814942 23.6496078,7.20406508 23.5412834,7.92860538 C23.3470339,9.29688921 23.6132549,10.1826472 24.3403137,10.5840005 C24.154877,11.4393188 24.3898859,11.986482 25.0453405,12.2258659 C25.4580749,12.4216571 25.7599144,12.6794552 25.9515936,12.9992601 C25.5171943,12.8226346 25.2373868,12.7542392 25.1121711,12.7929465 L25.1121711,12.7929465 Z" id="Fill-23" fill="#FFFFFF"></path>
                <path d="M30.3947308,9.93537155 L30.3947308,9.49606263 C30.3947308,9.35664123 30.2423422,9.37167319 30.1050089,9.36528461 L29.829975,9.368291 L29.829975,10.0932071 L30.0767344,10.0932071 C30.2570303,10.0898249 30.3947308,10.1003473 30.3947308,9.93537155" id="Fill-24" fill="#FFFFFF"></path>
                <g id="Group-9" fill="#BA2A2A">
                    <path d="M56.9044706,28.7362152 L23.8974688,28.7501197 L0.916167558,28.7501197 L0.916167558,23.7910773 L1.64028877,23.7910773 L1.64028877,17.4505981 L0.916167558,17.4505981 L0.916167558,11.7786652 L12.8729804,11.7854296 L13.2137433,10.7459698 C13.7961248,8.96844096 16.1050873,7.14844684 19.6654724,6.55318137 L20.9106524,6.34498878 L20.9150588,5.05524692 C20.9187308,3.98384423 21.5554581,3.07328348 23.0980713,2.35137377 C24.6256292,1.63660425 26.7465847,1.28034688 28.9119715,1.27132771 L29.3162602,1.27132771 C31.4816471,1.28034688 33.6026025,1.63660425 35.1301604,2.35137377 C36.6727736,3.07328348 37.3095009,3.98384423 37.3131729,5.05524692 L37.3175793,6.34498878 L38.5631266,6.55318137 C42.1231444,7.14844684 44.432107,8.96844096 45.0144884,10.7459698 L45.3552513,11.7854296 L57.3120642,11.7786652 L57.3120642,18.2288777 C58.7055936,18.7580025 59.4943422,21.1108795 59.4943422,23.432941 C59.4943422,25.9722142 58.5510018,28.5494431 56.9044706,28.7362152 Z M57.7699643,17.9282385 L57.7699643,11.3096682 L45.684631,11.3160567 L45.4488877,10.5967776 C44.7893939,8.58324708 42.277369,6.69899135 38.636934,6.09057292 L37.7743779,5.94626614 L37.7714403,5.05374373 C37.7670339,3.73017997 36.9544171,2.68921699 35.320738,1.92484201 C33.7127629,1.1721168 31.5191016,0.811349844 29.3169947,0.802706469 L28.9112371,0.802706469 C26.7091301,0.811349844 24.5154688,1.1721168 22.9074938,1.92484201 C21.2741818,2.68921699 20.4615651,3.73017997 20.4567914,5.05374373 L20.4538538,5.94626614 L19.5916649,6.09057292 C15.9508627,6.69899135 13.439205,8.58324708 12.779344,10.5967776 L12.5436007,11.3160567 L0.45826738,11.3096682 L0.45826738,17.9195952 L1.18202139,17.9195952 L1.18202139,23.3220803 L0.45826738,23.3220803 L0.45826738,29.2191168 L34.7835223,29.216862 L56.95441,29.20183 C59.0338717,28.9665799 59.9526096,25.9218571 59.9526096,23.432941 C59.9526096,21.2529315 59.2663102,18.7580025 57.7699643,17.9282385 L57.7699643,17.9282385 Z" id="Fill-12"></path>
                    <path d="M28.5308164,5.56069645 C30.2731872,5.56069645 31.6854439,7.00601906 31.6854439,8.78918488 C31.6854439,10.5719749 30.2731872,12.0176733 28.5308164,12.0176733 C26.7888128,12.0176733 25.3765561,10.5719749 25.3765561,8.78918488 C25.3765561,7.00601906 26.7888128,5.56069645 28.5308164,5.56069645 Z M28.5308164,12.3690453 C30.4630303,12.3690453 32.0291444,10.7662629 32.0291444,8.78918488 C32.0291444,6.81173102 30.4630303,5.20857288 28.5308164,5.20857288 C26.5989697,5.20857288 25.0328556,6.81173102 25.0328556,8.78918488 C25.0328556,10.7662629 26.5989697,12.3690453 28.5308164,12.3690453 L28.5308164,12.3690453 Z" id="Fill-25"></path>
                    <path d="M39.8009626,19.1593558 C39.7807665,19.1593558 39.7440463,19.1988147 39.7440463,19.2627005 L39.7440463,24.6095673 C39.7440463,24.673829 39.7807665,24.7132878 39.8009626,24.7132878 L41.5558182,24.7132878 C41.5760143,24.7132878 41.6131016,24.673829 41.6131016,24.6095673 L41.6131016,19.2627005 C41.6131016,19.1988147 41.5760143,19.1593558 41.5558182,19.1593558 L39.8009626,19.1593558" id="Fill-4"></path>
                    <path d="M5.47534046,16.5629611 L5.47534046,19.2333882 L6.31145811,19.2333882 C6.52186453,19.2254964 6.65075223,19.1229033 6.65368984,19.0725462 L6.69004278,16.6381209 C6.67755793,16.6272227 6.62100891,16.5862606 6.46935472,16.5558209 L5.47534046,16.5629611" id="Fill-5"></path>
                    <path d="M5.50802139,21.8034769 L5.50802139,24.4739039 L6.34413904,24.4739039 C6.55454545,24.4660122 6.68343316,24.3634191 6.68637077,24.313062 L6.72272371,21.8786367 C6.71023886,21.8677385 6.65368984,21.8267764 6.50203565,21.7963367 L5.50802139,21.8034769" id="Fill-5-Copy"></path>
                    <polyline id="Fill-6" points="12.4841141 20.743724 14.0351729 20.743724 14.0351729 19.1311709 12.4841141 19.132674 12.4841141 20.743724"></polyline>
                    <path d="M47.954303,20.8448139 L47.9862496,19.1931777 C47.9774367,19.1950567 47.9223565,19.1717571 47.8246809,19.1518398 L46.9665312,19.1582284 L46.9665312,20.951165 L47.6851444,20.951165 C47.8562602,20.9447764 47.9454902,20.8662344 47.954303,20.8448139" id="Fill-7"></path>
                    <path d="M26.9092549,23.0379763 C26.8923636,23.0345941 26.8651907,23.0308361 26.823697,23.0308361 L25.4760677,23.0308361 C25.4187843,23.0308361 25.3974866,23.1499644 25.3974866,23.1510918 L25.3974866,24.4878085 C25.4312692,24.5516943 25.5135223,24.6535358 25.5741105,24.7087783 L26.5780392,24.7087783 C26.7014189,24.7087783 26.8997077,24.3232086 26.9195365,24.1398187 L26.9188021,23.1462064 C26.9188021,23.0917156 26.9136613,23.0578937 26.9092549,23.0379763" id="Fill-8"></path>
                    <path d="M26.8817148,19.0105394 L26.4759572,19.0229408 L25.4261283,19.0203102 C25.3291872,19.0413549 25.2932014,19.1394384 25.2917326,19.1837827 L25.3042175,20.9556746 L26.894934,20.9556746 L26.8817148,19.0105394" id="Fill-9"></path>
                    <path d="M55.208,21.754623 C55.144107,21.7523682 55.0798467,21.7501134 55.0163209,21.7463555 L54.4119073,21.7557504 L54.4119073,24.724186 L55.0559786,24.7208038 C55.7007843,24.7076509 55.7007843,24.7076509 55.7007843,24.3589095 L55.7007843,21.9613124 C55.7007843,21.8489486 55.680221,21.8121203 55.680221,21.8117445 C55.6247736,21.7692792 55.3636934,21.7598842 55.208,21.754623" id="Fill-13"></path>
                    <path d="M55.3633262,27.0842032 L55.3552478,27.084579 L51.3152977,27.084579 L51.3152977,24.724186 L52.2281604,24.724186 L52.2281604,16.3750617 C52.2042923,16.3761891 52.1796898,16.378068 52.1565561,16.379947 L52.1565561,19.5039634 L50.1020642,19.5039634 L50.1020642,20.5776209 C50.1152834,21.0920896 50.0117326,21.4660095 49.850164,21.7380879 C50.203779,22.0236951 50.4560463,22.4615008 50.5140642,22.9605617 L50.5177362,23.0191864 L50.5177362,24.7219312 C50.4329127,25.9891251 49.2754938,26.9913808 47.8823316,27.0379799 L47.8746203,27.0383557 L43.9683316,27.0383557 L43.9683316,24.7993458 L44.8000428,24.7993458 L44.8000428,19.1518398 L43.9683316,19.1518398 L43.9683316,16.8744984 L47.8147665,16.8744984 C49.0382816,16.8951673 49.8163815,17.4814136 50.0344991,18.4975739 L50.0187094,13.8775021 L55.4587986,13.8775021 L55.4587986,16.3652909 L54.4357754,16.3641635 L54.4357754,19.414899 L54.6340642,19.4145232 C54.9737255,19.4145232 55.3780143,19.4152748 55.6974795,19.4190328 C55.9185348,19.4216634 56.0995651,19.4235424 56.245344,19.4408292 C57.0983529,19.4423323 57.8518503,20.1800256 57.9612763,21.1210261 L57.9645811,21.1796507 L57.9645811,24.5904016 C57.8680071,26.024826 56.7987166,27.0361009 55.3633262,27.0842032 Z M43.6786096,24.1416977 C43.6786096,25.7392189 42.4874082,27.0391073 41.0230089,27.0391073 L40.3326702,27.0391073 C38.8682709,27.0391073 37.6767023,25.7392189 37.6767023,24.1416977 L37.6767023,19.7249331 C37.6767023,18.127412 38.8682709,16.8278993 40.3326702,16.8278993 L41.0230089,16.8278993 C42.4874082,16.8278993 43.6786096,18.127412 43.6786096,19.7249331 L43.6786096,24.1416977 Z M37.0491551,19.132674 L36.5067986,19.132674 L36.5211194,24.8444417 L37.0065597,24.8444417 L37.0065597,27.0282091 L33.8203529,27.0282091 L33.8203529,24.8444417 L34.3660143,24.8444417 L34.3660143,23.1232827 L32.7734617,23.1232827 L32.7877825,24.8444417 L33.2732228,24.8444417 L33.2732228,27.0282091 L30.087016,27.0282091 L30.087016,24.8444417 L30.6330446,24.8444417 L30.6330446,19.132674 L30.1028057,19.132674 L30.1028057,16.9767157 L33.3158182,16.9767157 L33.3158182,19.132674 L32.7734617,19.132674 L32.7734617,21.0627772 L34.3660143,21.0627772 L34.3660143,19.132674 L33.8361426,19.132674 L33.8361426,16.9767157 L37.0491551,16.9767157 L37.0491551,19.132674 Z M29.7565348,27.0383557 L27.0623779,27.0383557 L27.0623779,26.8910425 C26.9136613,26.9786037 26.7561319,27.0334703 26.5897897,27.0334703 L25.3093583,27.0334703 C24.4927023,27.0334703 23.4851016,26.6121997 23.3227986,24.604682 L23.3209626,24.5640957 L23.3191266,22.7948344 C23.3194938,22.0018987 23.890492,21.2634539 24.6043316,21.0308343 L23.3731052,21.0308343 L23.3731052,19.1683749 C23.3958717,17.8252696 24.2705455,16.8188802 25.4077683,16.8188802 L26.1469447,16.8267719 L26.781836,16.8263961 L26.8846524,16.8271477 C28.1570053,16.9000527 28.9916542,17.8143715 29.0357184,19.15898 L29.0357184,24.6152043 L29.0353512,24.8406837 L29.7565348,24.8406837 L29.7565348,27.0383557 Z M21.6927914,12.3442426 C22.6394367,12.5550657 22.9041889,13.5032064 22.0743137,14.1461983 C21.4463993,14.5366534 20.556303,14.182275 20.7597326,13.2243636 C21.221672,14.1003509 21.9171515,13.5607036 21.5583957,13.0672797 C21.3744278,12.8158702 20.8159144,12.7230479 20.490574,13.0097824 C19.4778324,13.9699486 18.426902,14.4787804 17.3590802,14.3066645 C14.5551301,13.7328195 15.4635865,9.82751727 18.4155187,10.5625799 C16.6188021,11.5381539 16.7197825,13.5952771 18.5726809,13.4115115 C19.2567772,13.3194407 19.5057398,13.1082417 19.7950945,12.6884744 C20.0642531,12.2750956 19.5597184,11.6877219 19.0999822,12.0109089 C18.8447772,12.2469106 18.8411052,12.5644607 19.0885989,12.963935 C17.9891979,12.8147428 17.6844207,11.5268799 18.5612977,10.9184615 C19.3162638,10.4250375 20.2999964,10.6884726 20.5577718,11.5035804 C20.8823779,10.5644589 21.7243708,10.0368373 23.0837504,9.9199638 C23.2948913,11.4438284 22.8314831,12.2525476 21.6927914,12.3442426 Z M20.9800535,21.012796 L20.9800535,19.1311709 L19.4286275,19.1322982 L19.4286275,24.8444417 L20.0271658,24.8444417 L20.0271658,27.0282091 L16.742549,27.0282091 L16.742549,24.8444417 L17.2882103,24.8444417 L17.2882103,19.132674 L16.7583387,19.132674 L16.7583387,16.9767157 L23.1046809,16.9767157 L23.1237754,21.012796 L20.9800535,21.012796 Z M13.9444742,24.8440659 C14.0410481,24.8226453 14.0755651,24.7268166 14.0770339,24.6805933 L14.0689554,23.4288072 L15.9956613,23.4288072 L15.9956613,24.6967527 C15.9725276,26.039858 15.0978538,27.0462475 13.9609982,27.0462475 L12.5043102,27.0357251 C11.2235116,26.9545525 10.3873939,26.0361 10.343697,24.6960011 L10.3433298,19.2394009 C10.3433298,18.2769799 11.1643922,16.8218866 12.4011266,16.8218866 L14.0696898,16.8218866 C15.1386132,16.8707404 15.9839109,17.9203468 16.0573512,19.2634521 L16.0613904,22.8996823 L12.4841141,22.8996823 L12.4841141,24.8444417 L13.9444742,24.8440659 Z M25.0453405,12.2258659 C24.3898859,11.986482 24.154877,11.4393188 24.3403137,10.5840005 C23.6132549,10.1826472 23.3470339,9.29688921 23.5412834,7.92860538 C23.6496078,7.20406508 23.7175401,6.53814942 24.1317433,6.00413917 C24.4247701,5.62683706 24.9274688,5.62683706 25.6662781,5.09433001 C26.5053333,4.43142073 27.0928556,3.65840238 28.1742638,3.57272023 C28.9453868,3.50282163 29.6900713,3.82901508 30.4090517,4.55167638 C30.6881248,4.80721964 31.060467,4.89891458 31.5268128,4.82638539 L31.3252193,4.15671173 C31.9009911,4.42691115 32.3989162,5.03194739 32.8189947,5.97069306 C32.9493512,6.17963726 32.9045526,6.53476723 32.6849661,7.03570717 C32.5700321,7.41376087 32.7488592,7.83202506 33.2221818,8.28937233 C33.6705348,8.86772685 33.6760428,9.66705113 33.2387059,10.6873452 C32.8865597,11.42579 32.8358859,11.7797926 31.9630481,12.3634083 C31.4419893,12.6772004 30.8959608,12.9008007 30.3253298,13.0334578 C29.7502923,13.6204557 29.2016934,13.9353751 28.6802674,13.9778404 C27.2856364,14.0203057 26.4542923,13.8312788 26.1866025,13.4115115 C25.6662781,13.4502187 25.2744742,13.4156452 25.0115579,13.3081668 C24.9406881,13.006776 24.9741034,12.8350359 25.1121711,12.7929465 C25.2373868,12.7542392 25.5171943,12.8226346 25.9515936,12.9992601 C25.7599144,12.6794552 25.4580749,12.4216571 25.0453405,12.2258659 Z M36.352574,13.2243636 C36.5563708,14.182275 35.6662745,14.5366534 35.0383601,14.1461983 C34.2081176,13.5032064 34.4728699,12.5550657 35.4195152,12.3442426 C34.2811907,12.2525476 33.8177825,11.4438284 34.0285561,9.9199638 C35.388303,10.0368373 36.2302959,10.5644589 36.5545348,11.5035804 C36.8126774,10.6884726 37.79641,10.4250375 38.5510089,10.9184615 C39.4282531,11.5268799 39.1231087,12.8147428 38.0240749,12.963935 C38.2715686,12.5644607 38.2675294,12.2469106 38.0126916,12.0109089 C37.5529554,11.6877219 37.0484207,12.2750956 37.3172121,12.6884744 C37.606934,13.1082417 37.8558966,13.3194407 38.5396257,13.4115115 C40.3928913,13.5952771 40.4935045,11.5381539 38.6971551,10.5625799 C41.6490873,9.82751727 42.5571765,13.7328195 39.7535936,14.3066645 C38.6857718,14.4787804 37.6348414,13.9699486 36.6217326,13.0097824 C36.2967594,12.7230479 35.7378788,12.8158702 35.5542781,13.0672797 C35.1955223,13.5607036 35.8906346,14.1003509 36.352574,13.2243636 Z M9.98310517,13.0732924 L13.7792335,13.0755472 L14.4082496,11.1563422 C14.7780214,10.0274423 16.5288378,8.38407366 19.8685348,7.82563648 L22.1668485,7.44156999 L22.1749269,5.05975651 C22.1763957,4.68170281 22.3273155,4.12965421 23.6217005,3.52386637 C24.9282032,2.91281734 26.8497683,2.56933714 28.9141747,2.56031797 L29.2347415,2.56031797 C31.2969447,2.56933714 33.2989269,2.91206574 34.6065312,3.52386637 C35.9009162,4.12965421 36.0522032,4.68170281 36.0533048,5.05975651 L36.061016,7.44156999 L38.359697,7.82563648 C41.6993939,8.38444946 43.4502103,10.0274423 43.8199822,11.1563422 L44.4489982,13.0755472 L48.2223601,13.0732924 L48.2223601,13.4250402 L44.2018717,13.427295 L43.4942745,11.2675787 C43.1821533,10.3149285 41.5822567,8.72078948 38.3038824,8.17287467 L35.7184171,7.74070593 L35.7096043,5.06088391 C35.7088699,4.86659587 35.6839002,4.41488558 34.4633226,3.84404704 C33.2174082,3.26080713 31.2705062,2.92070912 29.2340071,2.91244154 L28.9149091,2.91244154 C26.8780428,2.92070912 25.0104563,3.26080713 23.7649091,3.84404704 C22.5443316,4.41488558 22.5193619,4.86659587 22.5186275,5.06088391 L22.5094474,7.74070593 L19.9239822,8.17287467 C16.645975,8.72078948 15.0460784,10.3149285 14.7339572,11.2675787 L14.0263601,13.427295 L9.98310517,13.4250402 L9.98310517,13.0732924 Z M9.3742852,24.5904016 C9.28211765,25.9534242 8.03179679,27.0338461 6.52700535,27.0842032 L6.51892692,27.084579 L2.27848485,27.084579 L2.27848485,24.724186 L3.19134759,24.724186 L3.19134759,16.5667191 L2.27848485,16.5667191 L2.27848485,14.1638609 L6.45393226,14.1638609 C8.02628877,14.1909184 8.89839216,15.0297016 8.91785383,16.5261328 L8.91785383,18.9943801 C8.92372906,19.2213626 8.93768271,19.7617614 8.63914795,20.2191087 C9.02838146,20.5238816 9.30708734,21.0000188 9.37061319,21.5441756 L9.3742852,21.6031761 L9.3742852,24.5904016 Z M56.8537968,18.5956574 L56.8537968,12.2476622 L45.0255045,12.2544266 L44.5800891,10.895162 C44.07482,9.35325904 41.9685526,7.59790234 38.4889519,7.01616563 L36.8607807,6.74333562 L36.8549055,5.05675012 C36.8519679,4.2356295 36.3903957,3.45659836 34.9395829,2.77790553 C33.4928093,2.1003401 31.4438253,1.74896812 29.3155258,1.73994895 L29.2336399,1.74032475 L29.0728057,1.73994895 L28.9942246,1.74032475 L28.9127059,1.73994895 C26.7840392,1.74896812 24.7354225,2.1003401 23.2886488,2.77790553 C21.837836,3.45659836 21.3758966,4.2356295 21.3733262,5.05675012 L21.367451,6.74333562 L19.7392799,7.01616563 C16.2596791,7.59790234 14.1530446,9.35325904 13.6481426,10.895162 L13.2027273,12.2544266 L1.37443494,12.2476622 L1.37443494,16.9816011 L2.09818895,16.9816011 L2.09818895,24.2596986 L1.37443494,24.2596986 L1.37443494,28.2814985 L33.8831444,28.2796195 L56.8537968,28.2702245 C58.0703351,28.1319305 59.0360749,26.0191891 59.0360749,23.432941 C59.0360749,20.8466929 58.0703351,18.7339514 56.8537968,18.5956574 L56.8537968,18.5956574 Z" id="Fill-15"></path>
                    <path d="M47.8536898,23.0003964 L46.9665312,23.010543 L46.9665312,24.7993458 L47.7633583,24.7993458 C48.1518574,24.7884476 48.3883351,24.7561289 48.4540642,24.7031413 L48.4379073,23.1879201 C48.413672,23.1484612 48.2286025,23.0263265 47.8536898,23.0003964" id="Fill-16"></path>
                    <path d="M27.4479394,9.6080507 L27.4479394,8.59527264 L27.9726702,8.59113886 C28.1625134,8.59978223 28.3604349,8.65502467 28.3729198,8.77340133 L28.3729198,9.38745674 C28.3729198,9.53251512 28.1823422,9.60278952 27.9333797,9.6080507 L27.4479394,9.6080507 Z M27.4479394,7.26532031 L27.9726702,7.26231391 C28.0938467,7.27772167 28.1918895,7.31680476 28.2021711,7.39948052 L28.1893191,8.04059345 C28.1823422,8.13078519 28.0637362,8.1980532 27.9040036,8.20218699 L27.4479394,8.20218699 L27.4479394,7.26532031 Z M28.792631,9.44645717 L28.792631,8.68208219 C28.7661925,8.51447588 28.5892014,8.36415631 28.365943,8.36415631 C28.5892014,8.31004127 28.6409768,8.18039065 28.6351016,8.01391173 L28.6351016,7.38369696 C28.6299608,7.07817245 28.4059679,6.91019034 27.9528414,6.90455335 L26.6804884,6.90455335 L26.6804884,7.26532031 L26.99518,7.26532031 L26.99518,9.6080507 L26.6804884,9.6080507 L26.6804884,9.95791949 L27.9726702,9.95791949 C28.3949519,9.94739712 28.7669269,9.72642736 28.792631,9.44645717 L28.792631,9.44645717 Z" id="Fill-26"></path>
                    <path d="M29.829975,9.368291 L30.1050089,9.36528461 C30.2423422,9.37167319 30.3947308,9.35664123 30.3947308,9.49606263 L30.3947308,9.93537155 C30.3947308,10.1003473 30.2570303,10.0898249 30.0767344,10.0932071 L29.829975,10.0932071 L29.829975,9.368291 Z M28.9295971,8.9541606 L29.2413512,8.9541606 L29.2413512,8.50883889 C29.2413512,8.40850059 29.3346203,8.42202935 29.4289911,8.41601656 L29.5020642,8.41601656 L29.5020642,10.0932071 L29.2740321,10.0932071 L29.2740321,10.343865 L30.2100285,10.343865 C30.5159073,10.336349 30.7244777,10.1781376 30.7428378,9.97783683 L30.7428378,9.35250745 C30.7237433,9.23262759 30.59559,9.12477331 30.4340214,9.12477331 C30.4611943,9.11876052 29.8362175,9.12026372 29.8362175,9.12026372 L29.8362175,8.41639236 L30.0917897,8.41639236 L30.0917897,8.10485507 L28.9255579,8.10485507 L28.9295971,8.41639236 L28.9295971,8.9541606 L28.9295971,8.9541606 Z" id="Fill-27"></path>
                </g>
                <path d="M14.7339572,11.2675787 C15.0460784,10.3149285 16.645975,8.72078948 19.9239822,8.17287467 L22.5094474,7.74070593 L22.5186275,5.06088391 C22.5193619,4.86659587 22.5443316,4.41488558 23.7649091,3.84404704 C25.0104563,3.26080713 26.8780428,2.92070912 28.9149091,2.91244154 L29.2340071,2.91244154 C31.2705062,2.92070912 33.2174082,3.26080713 34.4633226,3.84404704 C35.6839002,4.41488558 35.7088699,4.86659587 35.7096043,5.06088391 L35.7184171,7.74070593 L38.3038824,8.17287467 C41.5822567,8.72078948 43.1821533,10.3149285 43.4942745,11.2675787 L44.2018717,13.427295 L48.2223601,13.4250402 L48.2223601,13.0732924 L44.4489982,13.0755472 L43.8199822,11.1563422 C43.4502103,10.0274423 41.6993939,8.38444946 38.359697,7.82563648 L36.061016,7.44156999 L36.0533048,5.05975651 C36.0522032,4.68170281 35.9009162,4.12965421 34.6065312,3.52386637 C33.2989269,2.91206574 31.2969447,2.56933714 29.2347415,2.56031797 L28.9141747,2.56031797 C26.8497683,2.56933714 24.9282032,2.91281734 23.6217005,3.52386637 C22.3273155,4.12965421 22.1763957,4.68170281 22.1749269,5.05975651 L22.1668485,7.44156999 L19.8685348,7.82563648 C16.5288378,8.38407366 14.7780214,10.0274423 14.4082496,11.1563422 L13.7792335,13.0755472 L9.98310517,13.0732924 L9.98310517,13.4250402 L14.0263601,13.427295 L14.7339572,11.2675787" id="Fill-28"></path>
                <path d="M48.9229804,23.1518434 L48.9229804,24.7020139 C48.9229804,25.2191132 48.421016,25.2781136 47.7633583,25.296152 L46.4810909,25.296152 L46.4810909,22.5186222 L47.7020357,22.5054693 L47.8665419,22.5035903 C48.368139,22.53403 48.8914011,22.730197 48.9229804,23.1518434 Z M46.4810909,21.4479711 L46.4810909,18.6648044 L47.7020357,18.6557852 L47.8665419,18.6546578 C48.1867415,18.7087729 48.4463529,18.8478185 48.4727914,19.1435722 L48.4382745,20.8741262 C48.4217504,21.1886699 48.1151373,21.4269264 47.7020357,21.4472195 L47.6851444,21.4479711 L46.4810909,21.4479711 Z M48.9060891,21.8884074 C49.4954474,21.6963742 49.6316791,21.1680009 49.6166239,20.5776209 L49.6166239,19.0763042 C49.6026702,17.9883664 49.0111087,17.3915977 47.8147665,17.3716804 L44.454139,17.3716804 L44.454139,18.6550336 L45.2854831,18.6550336 L45.2854831,25.296152 L44.454139,25.296152 L44.454139,26.5415495 L47.8665419,26.5415495 C48.9817326,26.5039696 49.9643636,25.7174225 50.0322959,24.7219312 L50.0322959,23.0191864 C49.9628948,22.4246725 49.4954474,21.8884074 48.9060891,21.8884074 L48.9060891,21.8884074 Z" id="Fill-44" fill="#FFFFFF"></path>
                <path d="M42.0985419,19.2627005 L42.0985419,24.6095673 C42.0985419,24.9413978 41.8554545,25.210094 41.5558182,25.210094 L39.8009626,25.210094 C39.5013262,25.210094 39.2586061,24.9413978 39.2586061,24.6095673 L39.2586061,19.2627005 C39.2586061,18.9312458 39.5013262,18.6625496 39.8009626,18.6625496 L41.5558182,18.6625496 C41.8554545,18.6625496 42.0985419,18.9312458 42.0985419,19.2627005 Z M41.0230089,17.3250813 L40.3326702,17.3250813 C39.1341248,17.3250813 38.1625098,18.3994904 38.1625098,19.7249331 L38.1625098,24.1416977 C38.1625098,25.4675163 39.1341248,26.5423011 40.3326702,26.5423011 L41.0230089,26.5423011 C42.2215544,26.5423011 43.1931693,25.4675163 43.1931693,24.1416977 L43.1931693,19.7249331 C43.1931693,18.3994904 42.2215544,17.3250813 41.0230089,17.3250813 L41.0230089,17.3250813 Z" id="Fill-45" fill="#FFFFFF"></path>
                <polyline id="Fill-46" fill="#FFFFFF" points="34.8518217 21.5595834 32.2880214 21.5595834 32.2880214 18.6358679 32.8300107 18.6358679 32.8300107 17.4735219 30.588246 17.4735219 30.588246 18.6358679 31.118852 18.6358679 31.118852 25.3416236 30.5728235 25.3416236 30.5728235 26.531403 32.7877825 26.531403 32.7877825 25.3416236 32.2880214 25.3416236 32.2880214 22.6264765 34.8518217 22.6264765 34.8518217 25.3416236 34.3061604 25.3416236 34.3061604 26.531403 36.5211194 26.531403 36.5211194 25.3416236 36.0213583 25.3416236 36.0213583 18.6358679 36.5633476 18.6358679 36.5633476 17.4735219 34.3215829 17.4735219 34.3215829 18.6358679 34.8518217 18.6358679 34.8518217 21.5595834"></polyline>
                <path d="M27.4042424,24.1574813 C27.4042424,24.3570305 27.135451,25.2055844 26.5780392,25.2055844 L25.4760677,25.2055844 C25.2965062,25.2055844 24.9120463,24.742976 24.9120463,24.5438025 L24.9120463,23.1462064 C24.9120463,22.9474088 25.0655365,22.53403 25.4760677,22.53403 L26.823697,22.53403 C27.1934688,22.53403 27.4042424,22.7038911 27.4042424,23.1462064 L27.4042424,24.1574813 Z M28.5502781,24.6152043 L28.5502781,19.1751393 C28.5179643,18.1864124 27.953943,17.3859607 26.8813476,17.3243297 L26.7822032,17.3235781 L26.1579608,17.3239539 L26.1418039,17.3239539 L25.4077683,17.3156863 C24.4747094,17.3156863 23.8750695,18.2014444 23.8585455,19.1683749 L23.8585455,20.5340282 L24.8158396,20.5340282 L24.8066595,19.1683749 C24.8154724,18.874876 25.0350588,18.5625871 25.3923458,18.523504 L26.1579608,18.5257588 L26.4612692,18.5265104 L26.8817148,18.5137332 L27.0396114,18.5137332 C27.2437754,18.5111027 27.3576078,18.6396259 27.3803743,18.8996787 L27.3803743,21.4524807 L25.0611301,21.4524807 C24.3957611,21.4581177 23.8053012,22.128543 23.8045668,22.7940828 L23.8064029,24.5633441 C23.8717647,25.3701843 24.1122816,26.5362884 25.3093583,26.5362884 L26.5897897,26.5362884 C26.8923636,26.5362884 27.2804955,26.049253 27.5478182,25.7403463 L27.5478182,26.5415495 L29.2710945,26.5415495 L29.2710945,25.3374898 L28.5488093,25.3374898 L28.5502781,24.6152043 L28.5502781,24.6152043 Z" id="Fill-47" fill="#FFFFFF"></path>
                <path d="M11.9986738,21.2409059 L11.9986738,19.0327115 C11.9946346,18.7929518 12.1705241,18.6264729 12.4011266,18.6358679 L14.1405597,18.6358679 C14.1405597,18.6358679 14.4993155,18.5840076 14.5206132,19.0503741 L14.5206132,21.2409059 L11.9986738,21.2409059 Z M11.9986738,22.4025004 L15.5752157,22.4025004 L15.5726453,19.2912612 C15.5105882,18.1574759 14.8184135,17.3532662 14.0696898,17.3186927 L12.4011266,17.3186927 C11.4908342,17.3186927 10.8291373,18.4881789 10.8291373,19.2394009 L10.8291373,24.6794659 C10.8610838,25.6708235 11.4276756,26.4697719 12.5046774,26.5389189 L13.0734724,26.5396705 L13.2596435,26.5415495 L13.9609982,26.5494413 C14.894057,26.5494413 15.4933298,25.6633075 15.510221,24.6967527 L15.510221,23.9256133 L14.5577005,23.9256133 L14.5624742,24.6967527 C14.5529269,24.9906274 14.3337077,25.3025405 13.9760535,25.3416236 L13.2596435,25.3314771 L13.1986881,25.3307255 L12.5046774,25.3416236 L12.3390695,25.3416236 C12.1349055,25.3438784 12.0214403,25.215731 11.9986738,24.9553023 L11.9986738,22.4025004 L11.9986738,22.4025004 Z" id="Fill-48" fill="#FFFFFF"></path>
                <path d="M22.6192406,17.4735219 L17.243779,17.4735219 L17.243779,18.6358679 L17.7736506,18.6358679 L17.7736506,25.3416236 L17.2279893,25.3416236 L17.2279893,26.531403 L19.5417255,26.531403 L19.5417255,25.3416236 L18.9431872,25.3416236 L18.9431872,18.6358679 L21.0854403,18.6358679 C21.0854403,18.6358679 21.4441961,18.5840076 21.4654938,19.0503741 L21.4654938,20.5159898 L22.6350303,20.5159898 L22.6192406,18.1465777 L22.6192406,17.4735219" id="Fill-49" fill="#FFFFFF"></path>
                <path d="M6.08305882,25.2209922 L4.98953298,25.2209922 L4.98953298,21.2660845 L6.08305882,21.2544347 L6.51084848,21.2495493 C7.06128342,21.2826196 7.63595365,21.4983282 7.67083779,21.9613124 L7.67083779,24.3589095 C7.67083779,24.9267416 7.11966845,25.2010748 6.39738324,25.2209922 L6.08305882,25.2209922 Z M7.17621747,16.5956556 L7.13839572,19.0992279 C7.12003565,19.4498483 6.77449911,19.7136592 6.31145811,19.7301943 L4.98953298,19.7301943 L4.98953298,16.0699129 L6.08305882,16.0616454 L6.51084848,16.0582632 C6.86226025,16.1187668 7.14720856,16.2709654 7.17621747,16.5956556 Z M7.65174332,20.3619123 C8.29911943,20.1514649 8.44893761,19.6433848 8.43204635,18.9943801 L8.43204635,16.5325214 C8.41662389,15.3382325 7.76704456,14.683215 6.45393226,14.6610428 L2.76392513,14.6610428 L2.76392513,16.0699129 L3.67715508,16.0699129 L3.67715508,25.2209922 L2.76392513,25.2209922 L2.76392513,26.5877728 L6.51084848,26.5877728 C7.73473084,26.5468107 8.81393583,25.6832248 8.88847772,24.5904016 L8.88847772,21.6031761 C8.81246702,20.9504134 8.29911943,20.3619123 7.65174332,20.3619123 L7.65174332,20.3619123 Z" id="Fill-50" fill="#FFFFFF"></path>
                <path d="M54.9127701,25.2209922 L53.9260998,25.2209922 L53.9260998,21.2660845 L55.0266025,21.2495493 L55.056713,21.2514283 C55.5987023,21.279989 56.1865918,21.2146 56.1865918,21.9613124 L56.1865918,24.3589095 C56.1865918,25.1984442 55.7070267,25.204457 55.056713,25.2179858 L54.9127701,25.2209922 Z M56.2424064,19.9380111 C56.2989554,19.919597 55.6695722,19.9135842 55.056713,19.9117052 C54.4967308,19.9105778 53.9503351,19.9124568 53.9503351,19.9124568 L53.9503351,15.8669815 L54.9733583,15.8681089 L54.9733583,14.3743083 L50.5059857,14.3743083 L50.5217754,19.0071572 L51.6711159,19.0071572 L51.6711159,16.3724311 C51.6711159,15.8245163 52.0434581,15.9008034 52.420574,15.8654783 L52.7139679,15.8651025 L52.7139679,25.2209922 L51.800738,25.2209922 L51.800738,26.5877728 L55.3475365,26.5877728 C56.5717861,26.5468107 57.4045989,25.6832248 57.4791408,24.5904016 L57.4791408,21.1796507 C57.4031301,20.5272638 56.8897825,19.9380111 56.2424064,19.9380111 L56.2424064,19.9380111 Z" id="Fill-51" fill="#FFFFFF"></path>
            </g>
        </g>
    </g>
</svg>