<svg xmlns="http://www.w3.org/2000/svg" width="604.5" height="93.7"><path fill="#0291d3" d="M60 90H4C2.2 90 .6 88.5.6 86.6c0-1.8 1.5-3.3 3.4-3.3h56c1.8 0 3.3 1.5 3.3 3.3.1 1.9-1.4 3.4-3.3 3.4zm3.4-84.3c0 .9-.7 1.6-1.6 1.6h-3.4c-.9 0-1.6-.7-1.6-1.6V2.3c0-.9.7-1.6 1.6-1.6h3.4c.9 0 1.6.7 1.6 1.6v3.4zm-56.1 0c0 .9-.7 1.6-1.6 1.6H2.2C1.3 7.3.6 6.6.6 5.7V2.4c0-.9.7-1.6 1.6-1.6h3.4c.9 0 1.6.7 1.6 1.6v3.3zM3.9 54.1c-1.8 0-3.3-1.5-3.3-3.3V13.2c0-1.8 1.5-3.3 3.3-3.3 1.8 0 3.3 1.5 3.3 3.3v37.6c.1 1.8-1.4 3.3-3.3 3.3zm56.2 0c-1.8 0-3.3-1.5-3.3-3.3V13.2c0-1.8 1.5-3.3 3.3-3.3 1.8 0 3.3 1.5 3.3 3.3v37.6c0 1.8-1.5 3.3-3.3 3.3zM50.8 7.4H13.2c-1.8 0-3.3-1.5-3.3-3.3S11.4.8 13.2.8h37.6c1.8 0 3.3 1.5 3.3 3.3 0 1.8-1.5 3.3-3.3 3.3zm12.6 50.9c0-.9-.7-1.6-1.6-1.6h-3.4c-.9 0-1.6.7-1.6 1.6v3.4c0 .9.7 1.6 1.6 1.6h3.4c.9 0 1.6-.7 1.6-1.6v-3.4zm-56.1 0c0-.9-.7-1.6-1.6-1.6H2.3c-.9 0-1.6.7-1.6 1.6v3.4c0 .9.7 1.6 1.6 1.6h3.4c.9 0 1.6-.7 1.6-1.6v-3.4zm43.5-1.6H13.2c-1.8 0-3.3 1.5-3.3 3.3 0 1.8 1.5 3.3 3.3 3.3h37.6c1.8 0 3.3-1.5 3.3-3.3 0-1.9-1.5-3.3-3.3-3.3zm.2-2.8c-.8 0-1.6-.3-2.2-.9l-38-37.8c-1.2-1.2-1.2-3.2 0-4.5 1.2-1.3 3.2-1.3 4.4-.1l38 37.8c1.2 1.2 1.2 3.2.1 4.5-.7.7-1.5 1-2.3 1zm-38 0c-.8 0-1.6-.3-2.2-1-1.2-1.3-1.2-3.3.1-4.5l38-37.8c1.2-1.2 3.2-1.2 4.4.1 1.2 1.3 1.2 3.3-.1 4.5L15.2 53c-.6.6-1.4.9-2.2.9zm82.5 31.6c0-3.2 2.6-5.8 6.1-5.8 3.5 0 6 2.6 6 5.8 0 3.2-2.6 5.8-6.1 5.8-3.5 0-6-2.5-6-5.8zm8.9 0c0-1.6-1.2-3.1-2.9-3.1-1.8 0-2.9 1.4-2.9 3.1 0 1.6 1.2 3.1 2.9 3.1 1.9 0 2.9-1.4 2.9-3.1zm6.7-.8c0-3.4.5-6.9 4.7-7.7l6-1.1.5 2.5-6.1 1.2c-2.1.4-2.6 1.6-2.7 2.6.4-.7 1.8-1.9 4.1-1.9 2.8 0 5.3 2.3 5.3 5.4 0 3.1-2.5 5.6-5.9 5.6-3.8 0-5.9-2.3-5.9-6.6zm8.6 1c0-1.6-1.2-2.9-2.7-2.9-1.6 0-2.7 1.3-2.7 2.9 0 1.6 1.2 2.9 2.7 2.9 1.6 0 2.7-1.3 2.7-2.9zm11.9-2.1h2.3c2.6 0 4.5 1.2 4.5 3.7 0 2.4-1.6 3.8-4.3 3.8h-5.6v-8.5h-2.9v-2.7h6.1l-.1 3.7zm0 2.4v2.6h2c1 0 1.6-.5 1.6-1.3s-.5-1.2-1.6-1.2l-2-.1zm9.6-.5c0-3.2 2.3-5.8 5.5-5.8 3.7 0 5.4 2.9 5.4 6.1v.8h-7.8c.3 1.4 1.3 2.2 2.7 2.2 1.1 0 1.8-.3 2.7-1.1l1.8 1.6c-1 1.3-2.5 2.1-4.6 2.1-3.3-.1-5.7-2.4-5.7-5.9zm7.8-.9c-.2-1.4-1-2.4-2.4-2.4-1.3 0-2.2.9-2.4 2.4h4.8zm8.7 6.5l-.2 2.6h-2.7v-5.3h1.2c.9-2 1.1-4.8 1.1-7.5v-1h9.1v8.5h1.5l-.4 5.3h-2.7v-2.6h-6.9zm5.3-2.7v-5.8h-3v.2c0 1.9-.1 3.9-.8 5.5l3.8.1zm18.4 2.7h-3.1v-6.5l-4.3 6.5h-3V79.9h3.1v6.5l4.4-6.5h3v11.2zm14.7 0h-3.2v-4.3H189v4.3h-3.2V79.9h3.2v4.3h3.9v-4.3h3.2v11.2zm14.2 0h-3.2v-3.6h-1.7l-2.4 3.6h-3.7l2.9-4.1c-1.4-.5-2.3-1.6-2.3-3.3 0-2.2 1.6-3.7 4.5-3.7h5.9v11.1zm-3.1-5.9v-2.8H205c-1.1 0-1.8.5-1.8 1.4 0 .9.7 1.4 1.9 1.4h2.1zm17.4 5.9h-3.2v-3.6h-1.7l-2.4 3.6h-3.7l2.9-4.1c-1.4-.5-2.3-1.6-2.3-3.3 0-2.2 1.6-3.7 4.5-3.7h5.9v11.1zm-3.1-5.9v-2.8h-2.2c-1.1 0-1.8.5-1.8 1.4 0 .9.7 1.4 1.9 1.4h2.1zm18.2-1.8c0 1.2.5 1.8 1.5 1.8.9 0 1.5-.2 2.2-.5v-4.8h3.2v11.2h-3.2v-3.9c-.8.4-1.9.7-3 .7-2.2 0-3.9-1.3-3.9-3.6v-4.4h3.2v3.5zm10.7 4.4c0-2.4 1.9-3.6 4.5-3.6 1.1 0 1.9.2 2.7.5v-.2c0-1.3-.8-2-2.4-2-1.2 0-2.1.2-3.1.6l-.8-2.4c1.2-.5 2.4-.9 4.3-.9 1.7 0 3 .5 3.8 1.2.8.8 1.2 2.1 1.2 3.6v6.5h-3.1v-1.2c-.8.9-1.8 1.4-3.4 1.4-2 0-3.7-1.2-3.7-3.5zm7.2-.6v-.6c-.5-.2-1.2-.4-2-.4-1.4 0-2.2.5-2.2 1.6 0 .9.7 1.4 1.7 1.4 1.5-.1 2.5-.9 2.5-2zm6.8-1.7c0-3.2 2.4-5.8 5.9-5.8 2.1 0 3.4.8 4.4 2l-1.9 1.9c-.7-.6-1.4-1.1-2.6-1.1-1.6 0-2.7 1.4-2.7 3.1 0 1.7 1.1 3.1 2.8 3.1 1.1 0 1.8-.5 2.6-1.2l1.9 1.9c-1.1 1.2-2.3 2-4.6 2-3.4-.1-5.8-2.6-5.8-5.9zm13 0c0-3.2 2.6-5.8 6.1-5.8 3.5 0 6 2.6 6 5.8 0 3.2-2.6 5.8-6.1 5.8-3.4 0-6-2.5-6-5.8zm9 0c0-1.6-1.2-3.1-2.9-3.1-1.8 0-2.9 1.4-2.9 3.1 0 1.6 1.2 3.1 2.9 3.1 1.8 0 2.9-1.4 2.9-3.1zm13.1-5.6c2.2 0 3.7 1 3.7 2.8 0 1.4-.8 2.1-1.8 2.5 1.4.4 2.2 1.2 2.2 2.8 0 1.9-1.6 3-4.2 3h-6.1V79.9h6.2zm-.8 4.5c.9 0 1.3-.5 1.3-1.1 0-.5-.4-1-1.3-1h-2.3v2.1h2.3zm.3 4.2c1 0 1.4-.5 1.4-1.1 0-.6-.4-1.1-1.5-1.1h-2.4v2.2h2.5zm8.4-8.7h3.2v3.7h2.3c2.6 0 4.5 1.2 4.5 3.7 0 2.4-1.6 3.8-4.3 3.8h-5.6l-.1-11.2zm3.2 6.1v2.6h2c1 0 1.6-.5 1.6-1.3s-.5-1.2-1.6-1.2l-2-.1zm8.2-6.1h3.2v11.2h-3.2V79.9zm7 5.6c0-3.2 2.3-5.8 5.5-5.8 3.7 0 5.4 2.9 5.4 6.1v.8H329c.3 1.4 1.3 2.2 2.7 2.2 1.1 0 1.8-.3 2.7-1.1l1.8 1.6c-1 1.3-2.5 2.1-4.6 2.1-3.3-.1-5.8-2.4-5.8-5.9zm7.9-.9c-.2-1.4-1-2.4-2.4-2.4-1.3 0-2.2.9-2.4 2.4h4.8zm25 6.5h-3.2v-8.5h-3.8v8.5h-3.2V79.9h10.1l.1 11.2zm3.8-5.6c0-3.2 2.6-5.8 6.1-5.8 3.5 0 6 2.6 6 5.8 0 3.2-2.6 5.8-6.1 5.8-3.4 0-6-2.5-6-5.8zm9 0c0-1.6-1.2-3.1-2.9-3.1-1.8 0-2.9 1.4-2.9 3.1 0 1.6 1.2 3.1 2.9 3.1 1.8 0 2.9-1.4 2.9-3.1zm16.9 5.6h-3.2v-3.6h-1.7l-2.4 3.6h-3.7l2.9-4.1c-1.4-.5-2.3-1.6-2.3-3.3 0-2.2 1.6-3.7 4.5-3.7h5.9v11.1zm-3.2-5.9v-2.8H383c-1.1 0-1.8.5-1.8 1.4 0 .9.7 1.4 1.9 1.4h2.1zm7 .3c0-3.2 2.4-5.8 5.9-5.8 2.1 0 3.4.8 4.4 2l-1.9 1.9c-.7-.6-1.4-1.1-2.6-1.1-1.6 0-2.7 1.4-2.7 3.1 0 1.7 1.1 3.1 2.8 3.1 1.1 0 1.8-.5 2.6-1.2l1.9 1.9c-1.1 1.2-2.3 2-4.6 2-3.3-.1-5.8-2.6-5.8-5.9zm13.4 2.3c0-2.4 1.9-3.6 4.5-3.6 1.1 0 1.9.2 2.7.5v-.2c0-1.3-.8-2-2.4-2-1.2 0-2.1.2-3.1.6l-.8-2.4c1.2-.5 2.4-.9 4.3-.9 1.7 0 3 .5 3.8 1.2.8.8 1.2 2.1 1.2 3.6v6.5h-3.1v-1.2c-.8.9-1.8 1.4-3.4 1.4-2 0-3.7-1.2-3.7-3.5zm7.2-.6v-.6c-.5-.2-1.2-.4-2-.4-1.4 0-2.2.5-2.2 1.6 0 .9.7 1.4 1.7 1.4 1.5-.1 2.5-.9 2.5-2zM115.3 26.9h-9.2 8.1zM307.7 63l6.8-22.5 6.7 22.5h9.3l-11.4-34.2-.2-.7h-8.8l-.3.7L298.5 63zm-52.3-35.1H245l-11.8 11.6V27.9h-8.8v35h8.8V51.5l2.3-2.6 11.6 14h10.8l-16.4-20.7zm-89.3 0v3.3l-.1-.1c-3.3-4.1-9.3-4.1-9.4-4.1h-.3c-8.1-.1-14.3 5.4-16.6 12.8-.6 1.8-.9 3.6-.9 5.6v.7c.4 9.7 8.1 17.5 17.7 17.6 2.5 0 6-.6 8.1-2.6 0 0 .8-.7 1.4-1.7v3.3h9.2V27.9h-9.1zm-9.3-.9zm9.3 22.7l-.3.6c-1.7 3.3-5.1 5.5-8.9 5.5-2.3 0-4.5-.8-6.2-2.2-2-1.8-3.4-4.4-3.5-7.4v-.6c0-1.8.5-3.6 1.3-5.1 1.7-3.3 5.1-5.5 8.9-5.5 2.3 0 4.5.8 6.2 2.2 1.1 1 2 2.2 2.6 3.6.5 1.2.9 2.5.9 3.8v.6c0 1.6-.4 3.1-1 4.5zm117.5-21.5v3.3l-.1-.1c-3.3-4.1-9.3-4.1-9.3-4.1h-.3c-8.1-.1-14.2 5.3-16.5 12.7-.5 1.8-.8 3.6-.8 5.6v.7c.4 9.7 8.1 17.4 17.6 17.6 2.5 0 6-.6 8-2.6 0 0 .8-.7 1.4-1.7v3.3h9.2V28.1l-9.2.1zm-9.3-.9zm9.3 22.6l-.3.6c-1.7 3.3-5.1 5.5-8.9 5.5-2.3 0-4.4-.8-6.1-2.2-2-1.8-3.4-4.4-3.5-7.4v-.6c0-1.8.5-3.6 1.2-5.1 1.7-3.3 5.1-5.5 8.9-5.5 2.3 0 4.4.8 6.2 2.2 1.1 1 2 2.2 2.6 3.5.5 1.2.9 2.5.9 3.8v.6c0 1.7-.4 3.2-1 4.6zm-150-5.8c-.2-5.6-3.2-10.6-7.7-13.8-4.5-3.7-11.2-3.6-11.2-3.6h-9.2V15.8H127V7H96.7v55.7H115c.3 0 .8 0 1.2-.1 7.8-.6 14.2-5.6 16.5-12.4.6-1.7.9-3.6.9-5.5v-.6zm-11.2 5.2c-1.4 2.4-3.9 4.1-6.9 4.7h-10V35.6l7.5-.1h2.3c.3 0 .5.1.8.2 1.4.3 2.7.9 3.8 1.7 2.1 1.6 3.5 4 3.7 6.7v.6c.1 1.6-.4 3.2-1.2 4.6zm94.8 12.4c0-.1 0-.2-.1-.3V61.1c-.3-1.9-.4-5.5-.5-8.7v-25h-9.3V46c-.1 1.4-.4 4-1.5 5.7-1.5 2-3.8 3.4-6.5 3.4h-.7c-1.4-.1-2.7-.6-3.8-1.4-1.5-1-2.7-2.6-3.2-4.4v-.1c-.2-.6-.4-2-.5-3 0-.5-.1-.8-.1-.8-.5-7 0-17.9 0-17.9l-.3-.1H182c0 3.4.1 16.3 0 18.5.1 2.1.4 5.4 1.4 8.4.5 1.2 1.1 2.4 1.9 3.6.2.2.3.5.5.7.2.2.5.5.6.7 1.1 1.1 2.5 2.1 4.1 2.8h.1c.7.3 2.9 1.2 6.4 1.2.5 0 .8 0 1.2-.1 0 0 6 .1 9.5-4.8.1 1.3.3 3.3 1 4h8.5c.1-.2 0-.5 0-.7z"/><path fill="#2b2b2b" d="M584.5 50.8c-1.8 3.3-5 5.3-8.5 5.3-5.2 0-9.5-4.3-9.8-9.9v-.7c0-1.8.4-3.5 1.2-5.1 1.7-3.4 5-5.5 8.6-5.5 3.5 0 6.8 2.1 8.6 5.4l.1.3 7.7-3.1-.1-.3c-3-6.8-9.6-11.1-16.7-11.1-8.1 0-15.1 5.4-17.5 13.4-.6 1.9-.9 3.9-.9 5.8v.7c.4 10.4 8.5 18.5 18.4 18.5 7 0 13.3-4.1 16.5-10.7l.2-.3-7.6-3.1-.2.4zM425.8 29.6c-.3-.2-.7-.5-1-.7-.1-.1-.2-.1-.2-.1-.2-.1-.4-.2-.6-.4l-.3-.1c-.4-.2-.8-.4-1.1-.5-.1-.1-.2-.1-.4-.2s-.4-.2-.6-.2c-.1-.1-.3-.1-.4-.1h-.1l-.9-.3c-.2-.1-.4-.1-.6-.2-.2 0-.4-.1-.5-.1-.2-.1-.5-.1-.8-.1-.2 0-.4-.1-.5-.1-.3 0-.6-.1-.9-.1h-1.6c-.5 0-.9 0-1.5.1h-.2c-.4 0-.8.1-1.2.2l-.3.1c-.4.1-.8.2-1.1.2l-.3.1c-.4.1-.8.2-1.2.4l-.2.1c-.4.1-.8.3-1.3.5-4 1.8-7.3 5-9.2 9.1l-.1.3c-.4.8-.7 1.6-.9 2.4-.6 1.9-.9 3.9-.9 5.8v.7c.1 1.6.3 3.2.8 4.7l.1.4c.2.7.5 1.5.9 2.3.1.1.1.3.2.4l.2.3c.4.7.8 1.5 1.3 2.2l.1.2c.5.7.9 1.3 1.5 1.9l.1.2c.2.2.4.4.5.6l.1.1c.3.3.7.7 1.1 1l.2.2c.2.2.4.3.6.5l.2.1c.4.3.7.5 1.1.8l.3.2c.2.1.4.2.6.4l.3.1c.4.2.7.4 1.1.5.1.1.2.1.4.2s.4.2.6.2c.2.1.3.1.5.2l.9.3c.2.1.4.1.6.2.2.1.4.1.5.1.2.1.5.1.8.1.2 0 .4.1.5.1.3 0 .6.1.9.1h.4c.4 0 .7 0 1.2.1.5 0 .9 0 1.5-.1h.2c.4 0 .8-.1 1.2-.2l.3-.1c.4-.1.8-.2 1.1-.2l.3-.1c.4-.1.8-.2 1.1-.4l.2-.1c.4-.2.8-.3 1.2-.5h.1c4-1.8 7.3-5 9.2-9.1l.2-.3-8.3-3.5-.2.3c-1.8 3.2-5 5.2-8.5 5.2-1.3 0-2.6-.3-3.8-.8-3-1.7-4.6-3.6-5.1-6.3h26.4v-.3c.3-3.3.6-13.5-6.8-19zm-1.6 12h-17.5c.1-.4.3-.7.5-1.1 1.7-3.4 5-5.5 8.6-5.5 1.3 0 2.6.3 3.8.8 2 1.3 3.7 3.3 4.6 5.8zm-39.3 3.9l-.2.3c-3 5.5-8 8.8-13.5 8.8-8.8 0-16-8.5-16-18.9s7.2-18.9 16-18.9c6.5 0 12.3 4.6 14.8 11.6l.1.4 9.2-3.9-.1-.3c-4.1-10.8-13.5-17.8-24-17.8-14.4 0-26.1 13-26.1 28.9s11.7 28.9 26.1 28.9c9.2 0 17.8-5.5 22.5-14.3l.3-.6-9.1-4.2zm89.5-5.5c-2.6-8.2-9.3-13.5-17.3-13.5h-.6c-.1 0-5.8 0-9.3 3.8v-2.9H437v56.8h10.2V61.5l.9.9c2.4 2.3 6.3 2.7 8.5 2.7 10.1-.2 18.3-8.3 18.6-18.6v-.7c0-1.9-.3-3.9-.8-5.8zm-24.7-2.3c1.8-1.4 3.9-2.2 6.2-2.2 3.7 0 7.1 2.1 8.9 5.5.8 1.5 1.3 3.3 1.3 5.1v.6c-.2 2.9-1.4 5.5-3.5 7.4-1.8 1.4-3.9 2.2-6.2 2.2-3.7 0-7.1-2.1-8.9-5.5l-.3-.6c-.6-1.4-1-2.9-1-4.5v-.6c.1-1.3.4-2.6.9-3.8.7-1.5 1.5-2.7 2.6-3.6zm63.9 13.6c-.1-2.4-.9-4.3-2.6-5.9l-.1-.1c-.6-.6-1.4-1.2-2.2-1.8.2-.2.4-.5.6-.8 1.7-1.5 2.7-3.6 2.7-5.7 0-4.2-4.2-8.5-9-9.2-1.4-.1-2.5-.1-3-.1h-20v35.6h9.6l4.7-.1h7.3c5.2-.4 9.8-3.6 11.4-8 .4-1.1.6-2.3.6-3.5v-.4zm-9.9 1.4c-.1 1.6-1.4 2.8-2.6 3.1-.2 0-.4.1-.6.1-.9.2-1.9.2-2.6.2h-7.8v-8.4h7.5c.3 0 2 0 3.3.3h.3c.1 0 .2.1.4.1l.1.1c.1.1.2.1.3.2 1.1.6 1.8 1.7 1.8 2.7v.7s-.1.8-.1.9zm-2.5-12.5c-.8.3-1.2.4-1.4.4h-9.9v-5.9h10c.1 0 .5.1 1 .3 1 .5 1.8 1.6 1.8 2.5 0 1.4-.4 2.2-1.5 2.7zM554.1 63c-.1-.2-.1-.4-.2-.6 0-.1 0-.2-.1-.3l-.1-.4c-.3-2-.4-5.8-.5-8.6V27.8h-10v18.9c-.1 1.4-.4 3.9-1.4 5.5-1.5 2-3.8 3.2-6.2 3.2h-.7c-1.3-.1-2.6-.6-3.6-1.3-1.5-1-2.5-2.5-3.1-4.2v-.1c-.2-.5-.3-1.5-.5-2.8v-.1c0-.3 0-.5-.1-.7V46c-.5-6.9 0-17.7 0-17.8v-.4H518v.4c0 6 .1 16.5 0 18.5.1 2.2.4 5.6 1.4 8.5.6 1.4 1.2 2.6 2 3.6.2.2.4.5.6.7.2.2.4.5.6.7 1.2 1.2 2.6 2.2 4.3 2.9h.1c.8.4 3.1 1.2 6.4 1.2h.1c.5 0 .8 0 1.2-.1.2 0 5.6-.1 9.2-4.2.2 1.7.5 2.8 1 3.3l.1.1h9.2l-.1-.4z"/></svg>