<svg xmlns="http://www.w3.org/2000/svg" width="264" height="42" shape-rendering="geometricPrecision" text-rendering="geometricPrecision" image-rendering="optimizeQuality" fill-rule="evenodd" clip-rule="evenodd"><path fill="#999" d="M73.508 35.978h7.57l1.752-3.082h-9.322v3.082zm59.322-2.968h-5.898v-3.006h5.897c.95 0 1.637.23 1.637 1.485 0 .989-.418 1.521-1.637 1.521zm-5.898-8.067h5.363c.8 0 1.143.419 1.143 1.218 0 .836-.533 1.256-1.143 1.256h-5.363v-2.474zm8.251 2.775c.887-.38 1.641-.983 1.641-2.508 0-2.893-2.434-3.234-4.148-3.234h-9.056v14.002h9.21c4.221 0 5.097-2.32 5.097-4.452 0-2.4-1.361-3.393-2.744-3.808zm27.898 8.26h7.571l1.751-3.082h-9.323v3.083zm-89.573-8.56v3.08h10.691l1.79-3.08H73.507zm75.949 5.592h-4.908v-3.12h4.908c.571 0 1.446.152 1.446 1.559 0 1.294-.721 1.56-1.446 1.56v.001zm.19-6.012h-5.098v-5.022H141.2V35.98H149.612c2.28 0 4.64-1.256 4.64-4.565 0-4.34-3.045-4.416-4.605-4.416zm6.317 8.98h3.312V21.977h-3.312v14.003zM93.217 21.977L85.19 35.979h3.957l5.289-9.247 5.327 9.247h4.147L95.88 21.976h-2.664zm19.102 11.11c-3.234 0-4.604-1.864-4.604-4.147 0-2.512 1.56-4.187 4.604-4.187 3.426 0 4.604 1.675 4.604 4.187 0 3.006-2.244 4.148-4.604 4.148zm.04-11.453c-5.595 0-8.259 3.424-8.259 7.267 0 3.996 2.587 7.269 8.258 7.269 2.474 0 8.182-1.142 8.182-7.269 0-3.994-2.55-7.267-8.182-7.267zM54.284 32.896l5.289-9.246 5.328 9.246H54.285zm6.774-14.002h-2.741L50.29 32.896h-2.016v7.191h3.195v-4.109h16.438v4.11h3.197v-7.192h-2.017l-8.028-14.002zm28.048 3.082H73.508v3.081h13.811l1.788-3.081zm73.974 5.441v3.081h10.692l1.788-3.08h-12.48zm15.6-5.441h-15.6v3.081h13.813l1.786-3.081zm81.352 0l-7.916 9.094v-9.094h-3.348v14.003h2.815l8.068-9.17v9.17H263V21.976h-2.967zm-77.24 0l-8.031 14.003h3.957l5.29-9.247 5.327 9.247h4.15l-8.031-14.003h-2.663zm40.786 5.441h-7.344v-5.441h-3.349v14.003h3.349v-5.48h7.344v5.48h3.349V21.976h-3.35v5.441zm10.5 3.653v-9.094h-3.347V35.98h2.814l8.068-9.17v9.17h3.349V21.976h-2.968l-7.915 9.094zm-35.881-.076v-9.018h-3.35v14.003h2.817l8.066-9.095v9.095h3.349V21.976h-2.815l-8.068 9.018z"/><path fill="#999" d="M23.654 29.22L7.86 22.386l-3.353 5.807 17.768 3.415 1.378-2.388zm-2.2 6.78h5.251l4.616-7.992 4.614 7.993h5.251L31.32 18.91 21.453 36zm-17.73-6.447L0 36h19.74l1.75-3.032-17.766-3.415zm26.74-12.126L20.594.331 16.866 6.79l11.845 13.674 1.753-3.035zm-2.538 4.398L16.08 8.148l-3.35 5.804 13.817 10.26 1.379-2.387zM25.8 25.5L11.982 15.248l-3.374 5.845L24.4 27.93l1.4-2.428z"/></svg>